<svg width="58" height="54" viewBox="0 0 58 54" fill="none" xmlns="http://www.w3.org/2000/svg">
<path d="M43.8938 10.0867V10.989C42.6154 11.2004 41.6477 11.5744 40.9908 12.1109C40.0498 12.9076 38.9402 14.127 38.2123 15.7692L23.4017 43.9134H22.4162L7.54788 15.4033C6.85541 13.9401 5.91401 13.0458 5.62993 12.7206C5.18605 12.2166 4.64007 11.8223 3.99201 11.5378C3.34393 11.2533 2.46948 11.0704 1.36865 10.989V10.0867H15.836V10.989C14.167 11.1354 13.3712 11.3955 12.8741 11.7695C12.377 12.1435 12.1284 12.6231 12.1284 13.2084C12.1284 14.0214 12.5367 15.2896 13.3535 17.013L24.3338 36.4017L35.0696 17.2569C35.904 15.3708 36.5964 14.062 36.5964 13.3303C36.5964 12.8588 36.3389 12.4077 35.824 11.9768C35.3091 11.5459 34.7265 11.2411 33.5014 11.0622C33.4126 11.046 33.2616 11.0216 33.0486 10.989V10.0867H43.8938Z" fill="white"/>
<path d="M56.6319 10.0867V10.989C55.3534 11.2004 54.3858 11.5744 53.7289 12.1109C52.7878 12.9076 51.6782 14.127 50.9503 15.7692L37.9522 43.9134H36.9668L23.2312 15.4033C22.5387 13.9401 21.5973 13.0458 21.3133 12.7206C20.8694 12.2166 20.3234 11.8223 19.6753 11.5378C19.0273 11.2533 18.4402 11.0704 17.3394 10.989V10.0867H31.5193V10.989C29.8503 11.1354 29.0546 11.3955 28.5574 11.7695C28.0603 12.1435 27.8117 12.6231 27.8117 13.2084C27.8117 14.0214 28.2201 15.2896 29.0368 17.013L38.8843 36.4017L47.8076 17.2569C48.6421 15.3708 49.3344 14.062 49.3344 13.3303C49.3344 12.8588 49.0769 12.4077 48.5621 11.9768C48.0471 11.5459 47.1771 11.2411 45.952 11.0622C45.8632 11.046 45.7123 11.0216 45.4993 10.989V10.0867H56.6319Z" fill="white"/>
</svg>
